<svg width="30" height="30" viewBox="0 0 30 30" fill="none" xmlns="http://www.w3.org/2000/svg">
<path d="M0 24.1008V29.1668C0 29.6334 0.366617 30 0.83322 30H5.8992C6.11584 30 6.33247 29.9167 6.48245 29.75L24.68 11.5692L18.4308 5.32002L0.249966 23.5009C0.0833222 23.6675 0 23.8675 0 24.1008ZM29.5127 6.73649C29.6671 6.58232 29.7897 6.3992 29.8733 6.19761C29.957 5.99601 30 5.7799 30 5.56165C30 5.3434 29.957 5.12729 29.8733 4.9257C29.7897 4.7241 29.6671 4.54098 29.5127 4.38681L25.6132 0.487341C25.459 0.332856 25.2759 0.210293 25.0743 0.126669C24.8727 0.0430441 24.6566 0 24.4384 0C24.2201 0 24.004 0.0430441 23.8024 0.126669C23.6008 0.210293 23.4177 0.332856 23.2635 0.487341L20.2139 3.53693L26.4631 9.78608L29.5127 6.73649Z" fill="black" fill-opacity="0.6"/>
</svg>
