<svg width="19" height="17" viewBox="0 0 19 17" fill="none" xmlns="http://www.w3.org/2000/svg">
<rect width="19" height="17" fill="#CFCFCF"/>
<rect x="3" y="3" width="4" height="4" fill="#979797"/>
<rect x="3" y="3" width="4" height="4" fill="#979797"/>
<rect x="3" y="3" width="4" height="4" fill="#979797"/>
<rect x="3" y="3" width="4" height="4" fill="#979797"/>
<rect x="3" y="3" width="4" height="4" fill="#979797"/>
<rect x="3" y="3" width="4" height="4" fill="#979797"/>
<rect x="3" y="10" width="4" height="4" fill="#979797"/>
<rect x="3" y="10" width="4" height="4" fill="#979797"/>
<rect x="3" y="10" width="4" height="4" fill="#979797"/>
<rect x="3" y="10" width="4" height="4" fill="#979797"/>
<rect x="3" y="10" width="4" height="4" fill="#979797"/>
<rect x="3" y="10" width="4" height="4" fill="#979797"/>
<rect x="12" y="3" width="4" height="4" fill="#979797"/>
<rect x="12" y="3" width="4" height="4" fill="#979797"/>
<rect x="12" y="3" width="4" height="4" fill="#979797"/>
<rect x="12" y="3" width="4" height="4" fill="#979797"/>
<rect x="12" y="3" width="4" height="4" fill="#979797"/>
<rect x="12" y="3" width="4" height="4" fill="#979797"/>
<rect x="12" y="10" width="4" height="4" fill="#979797"/>
<rect x="12" y="10" width="4" height="4" fill="#979797"/>
<rect x="12" y="10" width="4" height="4" fill="#979797"/>
<rect x="12" y="10" width="4" height="4" fill="#979797"/>
<rect x="12" y="10" width="4" height="4" fill="#979797"/>
<rect x="12" y="10" width="4" height="4" fill="#979797"/>
</svg>
