<svg width="53" height="53" viewBox="0 0 53 53" fill="none" xmlns="http://www.w3.org/2000/svg">
<circle cx="26.5" cy="26.5" r="25.5" fill="#3B5998" stroke="#E3E1E1" stroke-width="2"/>
<path d="M30.2496 19.416C29.2683 19.48 28.5536 19.7787 28.1056 20.312C27.6576 20.8453 27.4336 21.6133 27.4336 22.616V23.352H30.1536C31.3483 23.352 31.9456 23.8533 31.9456 24.856C31.9456 25.8587 31.3483 26.36 30.1536 26.36H27.4336V37.272C27.4336 37.8907 27.2416 38.36 26.8576 38.68C26.495 39 26.0256 39.16 25.4496 39.16C24.8736 39.16 24.3936 39 24.0096 38.68C23.6256 38.36 23.4336 37.8907 23.4336 37.272V26.36H21.8336C20.639 26.36 20.0416 25.8587 20.0416 24.856C20.0416 23.8533 20.639 23.352 21.8336 23.352H23.4336V23.128C23.4336 21.1227 23.9563 19.5547 25.0016 18.424C26.0683 17.272 27.5616 16.6213 29.4816 16.472L30.3136 16.408C31.167 16.344 31.7643 16.44 32.1056 16.696C32.4683 16.9307 32.6496 17.304 32.6496 17.816C32.6496 18.7333 32.127 19.2453 31.0816 19.352L30.2496 19.416Z" fill="white"/>
</svg>
