<svg width="53" height="53" viewBox="0 0 53 53" fill="none" xmlns="http://www.w3.org/2000/svg">
<circle cx="26.5" cy="26.5" r="25.5" fill="white" stroke="#E3E1E1" stroke-width="2"/>
<path fill-rule="evenodd" clip-rule="evenodd" d="M18.4652 27C18.4652 26.0257 18.627 25.0915 18.9159 24.2154L13.8605 20.355C12.8752 22.3554 12.3202 24.6096 12.3202 27C12.3202 29.3885 12.8747 31.6411 13.8584 33.6403L18.911 29.7724C18.6248 28.9003 18.4652 27.9696 18.4652 27Z" fill="#FBBC05"/>
<path fill-rule="evenodd" clip-rule="evenodd" d="M27.3415 18.1364C29.4581 18.1364 31.3699 18.8864 32.872 20.1136L37.2417 15.75C34.579 13.4318 31.1651 12 27.3415 12C21.4052 12 16.3033 15.3947 13.8605 20.355L18.9157 24.2154C20.0805 20.6796 23.4009 18.1364 27.3415 18.1364Z" fill="#EA4335"/>
<path fill-rule="evenodd" clip-rule="evenodd" d="M27.3415 35.8636C23.4012 35.8636 20.0808 33.3204 18.9159 29.7846L13.8605 33.6443C16.3033 38.6053 21.4052 42 27.3415 42C31.0052 42 34.5033 40.699 37.1285 38.2615L32.3299 34.5518C30.9759 35.4047 29.2708 35.8636 27.3415 35.8636Z" fill="#34A853"/>
<path fill-rule="evenodd" clip-rule="evenodd" d="M41.6799 27C41.6799 26.1136 41.5432 25.159 41.3384 24.2728H27.3415V30.0682H35.3984C34.9955 32.0442 33.8991 33.5632 32.3299 34.5518L37.1285 38.2615C39.8862 35.7021 41.6799 31.8893 41.6799 27Z" fill="#4285F4"/>
</svg>
